{"asset":{"version":"2.0","generator":"babylon.js glTF exporter for 3ds max 2015 v1.3.8"},"scene":0,"scenes":[{"nodes":[0,1],"extensions":{}}],"nodes":[{"mesh":0,"translation":[-117.29187,7.58401155,22.8113213],"rotation":[-1.0,0.0,0.0,1.62920685E-07],"scale":[1.0,1.0,1.0],"name":"Sphere010"},{"translation":[0.0,0.0,0.0],"rotation":[0.0,0.0,0.0,1.0],"scale":[1.0,1.0,1.0],"name":"Default light"}],"meshes":[{"primitives":[{"attributes":{"POSITION":1,"NORMAL":2,"TEXCOORD_0":3},"indices":0,"mode":4,"material":0}],"name":"Sphere010"}],"accessors":[{"bufferView":0,"componentType":5123,"count":35136,"type":"SCALAR","name":"accessorIndices"},{"bufferView":1,"componentType":5126,"count":35136,"max":[1.654953,7.564145,1.59961319],"min":[-1.51326752,0.486640453,-1.6405201],"type":"VEC3","name":"accessorPositions"},{"bufferView":1,"byteOffset":421632,"componentType":5126,"count":35136,"type":"VEC3","name":"accessorNormals"},{"bufferView":2,"componentType":5126,"count":35136,"type":"VEC2","name":"accessorUVs"}],"bufferViews":[{"buffer":0,"byteLength":70272,"name":"bufferViewScalar"},{"buffer":0,"byteOffset":70272,"byteLength":843264,"byteStride":12,"name":"bufferViewFloatVec3"},{"buffer":0,"byteOffset":913536,"byteLength":281088,"byteStride":8,"name":"bufferViewFloatVec2"}],"buffers":[{"uri":"test2.bin","byteLength":1194624}],"materials":[{"pbrMetallicRoughness":{"baseColorFactor":[1.0,1.0,1.0,1.0],"metallicFactor":0.145833567,"roughnessFactor":0.95},"normalTexture":{"index":0,"texCoord":0},"emissiveFactor":[0.0,0.0,0.0],"alphaMode":"OPAQUE","name":"powder white"}],"textures":[{"sampler":0,"source":0,"name":"Copy of lizardsk.jpg"}],"images":[{"uri":"Copy of lizardsk.jpg"}],"samplers":[{"magFilter":9729,"minFilter":9987,"wrapS":10497,"wrapT":10497}]}